HIERARCHY
ROOT Hips
{
  OFFSET 5.84602e-005 68.8428 3.50346
  CHANNELS 6 Xposition Yposition Zposition Zrotation Xrotation Yrotation
  JOINT Spine
  {
    OFFSET 0 8.597 -4.6522
    CHANNELS 3 Zrotation Xrotation Yrotation
    JOINT Spine1
    {
      OFFSET 0 7.8454 0.4098
      CHANNELS 3 Zrotation Xrotation Yrotation
      JOINT Spine2
      {
        OFFSET 0 9.7078 -2.1609
        CHANNELS 3 Zrotation Xrotation Yrotation
        JOINT Neck
        {
          OFFSET 0 21.8761 -0.4549
          CHANNELS 3 Zrotation Xrotation Yrotation
          JOINT Head
          {
            OFFSET 0 12.3537 3.3602
            CHANNELS 3 Zrotation Xrotation Yrotation
            End Site
            {
              OFFSET 0.0001 18.9506 0.5657
            }
          }
        }
        JOINT LeftShoulder
        {
          OFFSET 2.2086 21.1115 7.2329
          CHANNELS 3 Zrotation Xrotation Yrotation
          JOINT LeftArm
          {
            OFFSET 13.1193 3.0282 -4.8998
            CHANNELS 3 Zrotation Xrotation Yrotation
            JOINT LeftForeArm
            {
              OFFSET 27.4081 -0.0973053 -0.2375
              CHANNELS 3 Zrotation Xrotation Yrotation
              JOINT LeftHand
              {
                OFFSET 22.8641 0.0662994 -0.1369
                CHANNELS 3 Zrotation Xrotation Yrotation
                JOINT LeftHandIndex1
                {
                  OFFSET 8.8614 0.775009 2.4612
                  CHANNELS 3 Zrotation Xrotation Yrotation
                  JOINT LeftHandIndex2
                  {
                    OFFSET 3.3146 -0.808304 0.5841
                    CHANNELS 3 Zrotation Xrotation Yrotation
                    JOINT LeftHandIndex3
                    {
                      OFFSET 2.2628 -0.552002 0.3989
                      CHANNELS 3 Zrotation Xrotation Yrotation
                      End Site
                      {
                        OFFSET 1.6102 -0.4807 0.2612
                      }
                    }
                  }
                }
                JOINT LeftHandMiddle1
                {
                  OFFSET 8.9937 0.895004 0.2143
                  CHANNELS 3 Zrotation Xrotation Yrotation
                  JOINT LeftHandMiddle2
                  {
                    OFFSET 4.0984 0.0113983 -0.0242
                    CHANNELS 3 Zrotation Xrotation Yrotation
                    JOINT LeftHandMiddle3
                    {
                      OFFSET 2.2716 0.00689697 -0.0138001
                      CHANNELS 3 Zrotation Xrotation Yrotation
                      End Site
                      {
                        OFFSET 2.0404 -0.1441 0.0027
                      }
                    }
                  }
                }
                JOINT LeftHandRing1
                {
                  OFFSET 8.5234 0.597198 -2.0164
                  CHANNELS 3 Zrotation Xrotation Yrotation
                  JOINT LeftHandRing2
                  {
                    OFFSET 3.7188 -0.188293 -0.2328
                    CHANNELS 3 Zrotation Xrotation Yrotation
                    JOINT LeftHandRing3
                    {
                      OFFSET 2.1191 -0.106598 -0.1332
                      CHANNELS 3 Zrotation Xrotation Yrotation
                      End Site
                      {
                        OFFSET 1.8737 -0.2304 -0.0886
                      }
                    }
                  }
                }
                JOINT LeftHandPinky1
                {
                  OFFSET 7.9094 -0.601089 -3.4825
                  CHANNELS 3 Zrotation Xrotation Yrotation
                  JOINT LeftHandPinky2
                  {
                    OFFSET 2.2874 -0.477005 -0.6314
                    CHANNELS 3 Zrotation Xrotation Yrotation
                    JOINT LeftHandPinky3
                    {
                      OFFSET 1.6774 -0.349396 -0.4633
                      CHANNELS 3 Zrotation Xrotation Yrotation
                      End Site
                      {
                        OFFSET 1.4888 -0.4091 -0.3416
                      }
                    }
                  }
                }
                JOINT LeftHandThumb1
                {
                  OFFSET 1.833 -1.3875 1.3896
                  CHANNELS 3 Zrotation Xrotation Yrotation
                  JOINT LeftHandThumb2
                  {
                    OFFSET 3.4129 -1.121 2.5732
                    CHANNELS 3 Zrotation Xrotation Yrotation
                    JOINT LeftHandThumb3
                    {
                      OFFSET 2.2474 -0.804199 1.6192
                      CHANNELS 3 Zrotation Xrotation Yrotation
                      End Site
                      {
                        OFFSET 1.6527 -0.5689 1.1317
                      }
                    }
                  }
                }
              }
            }
          }
        }
        JOINT RightShoulder
        {
          OFFSET -2.2086 21.1115 7.2329
          CHANNELS 3 Zrotation Xrotation Yrotation
          JOINT RightArm
          {
            OFFSET -13.1216 3.0287 -4.9007
            CHANNELS 3 Zrotation Xrotation Yrotation
            JOINT RightForeArm
            {
              OFFSET -27.4081 -0.0973053 -0.2375
              CHANNELS 3 Zrotation Xrotation Yrotation
              JOINT RightHand
              {
                OFFSET -22.8641 0.0664063 -0.1369
                CHANNELS 3 Zrotation Xrotation Yrotation
                JOINT RightHandIndex1
                {
                  OFFSET -8.8614 0.774994 2.4612
                  CHANNELS 3 Zrotation Xrotation Yrotation
                  JOINT RightHandIndex2
                  {
                    OFFSET -3.3146 -0.808304 0.5841
                    CHANNELS 3 Zrotation Xrotation Yrotation
                    JOINT RightHandIndex3
                    {
                      OFFSET -2.2628 -0.552002 0.3989
                      CHANNELS 3 Zrotation Xrotation Yrotation
                      End Site
                      {
                        OFFSET -1.6102 -0.4807 0.2612
                      }
                    }
                  }
                }
                JOINT RightHandMiddle1
                {
                  OFFSET -8.9937 0.894989 0.2143
                  CHANNELS 3 Zrotation Xrotation Yrotation
                  JOINT RightHandMiddle2
                  {
                    OFFSET -4.0984 0.0113983 -0.0242
                    CHANNELS 3 Zrotation Xrotation Yrotation
                    JOINT RightHandMiddle3
                    {
                      OFFSET -2.2716 0.00691223 -0.0138001
                      CHANNELS 3 Zrotation Xrotation Yrotation
                      End Site
                      {
                        OFFSET -2.0404 -0.1441 0.0027
                      }
                    }
                  }
                }
                JOINT RightHandRing1
                {
                  OFFSET -8.5234 0.597198 -2.0164
                  CHANNELS 3 Zrotation Xrotation Yrotation
                  JOINT RightHandRing2
                  {
                    OFFSET -3.7188 -0.188309 -0.2328
                    CHANNELS 3 Zrotation Xrotation Yrotation
                    JOINT RightHandRing3
                    {
                      OFFSET -2.1191 -0.106598 -0.1332
                      CHANNELS 3 Zrotation Xrotation Yrotation
                      End Site
                      {
                        OFFSET -1.8737 -0.2304 -0.0886
                      }
                    }
                  }
                }
                JOINT RightHandPinky1
                {
                  OFFSET -7.9094 -0.601105 -3.4825
                  CHANNELS 3 Zrotation Xrotation Yrotation
                  JOINT RightHandPinky2
                  {
                    OFFSET -2.2874 -0.477005 -0.6314
                    CHANNELS 3 Zrotation Xrotation Yrotation
                    JOINT RightHandPinky3
                    {
                      OFFSET -1.6774 -0.349396 -0.4633
                      CHANNELS 3 Zrotation Xrotation Yrotation
                      End Site
                      {
                        OFFSET -1.4888 -0.4091 -0.3416
                      }
                    }
                  }
                }
                JOINT RightHandThumb1
                {
                  OFFSET -1.833 -1.38751 1.3896
                  CHANNELS 3 Zrotation Xrotation Yrotation
                  JOINT RightHandThumb2
                  {
                    OFFSET -3.41299 -1.12099 2.5732
                    CHANNELS 3 Zrotation Xrotation Yrotation
                    JOINT RightHandThumb3
                    {
                      OFFSET -2.24741 -0.804108 1.6192
                      CHANNELS 3 Zrotation Xrotation Yrotation
                      End Site
                      {
                        OFFSET -1.6527 -0.5689 1.1317
                      }
                    }
                  }
                }
              }
            }
          }
        }
      }
    }
  }
  JOINT RightUpLeg
  {
    OFFSET -9.1966 3.8861 -0.7581
    CHANNELS 3 Zrotation Xrotation Yrotation
    JOINT RightLeg
    {
      OFFSET -0.7359 -41.0265 0
      CHANNELS 3 Zrotation Xrotation Yrotation
      JOINT RightFoot
      {
        OFFSET 0 -40.2855 0
        CHANNELS 3 Zrotation Xrotation Yrotation
        JOINT RightToeBase
        {
          OFFSET 0 -5.6122 11.7359
          CHANNELS 3 Zrotation Xrotation Yrotation
          End Site
          {
            OFFSET 0 0 7.8731
          }
        }
      }
    }
  }
  JOINT LeftUpLeg
  {
    OFFSET 9.1965 3.8864 -0.7581
    CHANNELS 3 Zrotation Xrotation Yrotation
    JOINT LeftLeg
    {
      OFFSET 0.7359 -41.0268 0
      CHANNELS 3 Zrotation Xrotation Yrotation
      JOINT LeftFoot
      {
        OFFSET 0 -40.2855 0
        CHANNELS 3 Zrotation Xrotation Yrotation
        JOINT LeftToeBase
        {
          OFFSET 0 -5.6122 11.7359
          CHANNELS 3 Zrotation Xrotation Yrotation
          End Site
          {
            OFFSET 0 0 7.8731
          }
        }
      }
    }
  }
}
MOTION
Frames:	4
Frame Time:	0.0333333
-0.000376654 10.2104 66.4618 -0.00886773 -71.0095 179.991 0.028784 -2.49676 0.0462659 0.0596733 -4.99349 0.0939225 0.0596733 -4.99347 0.0939226 1.14555e-006 -1.74409 8.43412e-007 -0.0512736 2.05665 -0.00917401 28.5332 29.7799 -30.0901 -124.68 -67.3599 -140.391 -33.0106 -1.02289 -86.9926 -3.4174 22.0463 -32.1981 -1.40578e-006 8.16323e-007 -4.78368e-007 -8.77374e-007 3.41794e-007 -5.37952e-007 -3.97569e-015 1.59028e-015 6.36111e-015 -1.40578e-006 8.16323e-007 -4.78368e-007 -0.0146528 -8.71853e-005 -4.18126e-006 8.74653e-015 3.18055e-015 -3.18055e-015 -1.40578e-006 8.16323e-007 -4.78368e-007 -0.0187722 -0.00117284 5.56467e-005 1.59028e-015 7.95139e-015 -3.18055e-015 -1.40578e-006 8.16323e-007 -4.78368e-007 -0.0122906 -0.00325223 0.000678399 -1.03368e-014 9.54166e-015 -0 -1.40578e-006 8.16323e-007 -4.78368e-007 -8.77374e-007 3.41794e-007 -5.37952e-007 -3.97569e-015 1.59028e-015 6.36111e-015 -28.3213 29.8332 29.9796 124.717 -67.3745 140.439 33.0062 -1.07857 86.9646 3.39836 22.0455 32.1733 2.8906e-007 -5.78702e-007 1.55916e-006 -2.57471e-007 1.55916e-006 5.78702e-007 3.40738e-006 -6.37606e-008 9.81039e-007 2.8906e-007 -5.78702e-007 1.55916e-006 0.0149729 -9.03901e-005 3.40586e-006 3.40756e-006 -6.36336e-008 9.81044e-007 2.8906e-007 -5.78702e-007 1.55916e-006 0.0190092 -0.00119205 -5.6666e-005 3.40762e-006 -6.36108e-008 9.81013e-007 2.8906e-007 -5.78702e-007 1.55916e-006 0.0122617 -0.00324189 -0.000678634 3.40756e-006 -6.36754e-008 9.80941e-007 2.8906e-007 -5.78702e-007 1.55916e-006 -2.57471e-007 1.55916e-006 5.78702e-007 3.40738e-006 -6.37606e-008 9.81039e-007 -95.518 -33.8845 -84.5919 176.749 45.1466 177.288 -7.15771 12.6879 -3.6426 -2.16298e-006 8.00459e-007 -6.18667e-006 95.5206 -33.8924 84.5746 -176.707 45.1481 -177.336 7.13662 12.6938 3.65816 6.80652e-006 8.36085e-006 5.42228e-006 
-0.000380548 10.1738 66.5671 -0.00886773 -71.0095 179.991 0.0292557 -2.47931 0.0463727 0.0606073 -4.95857 0.0941464 0.0606073 -4.95855 0.0941464 1.27289e-006 -2.23457 8.94684e-007 -0.051339 1.65683 -0.00912485 28.821 29.2244 -29.8307 -125.179 -67.4848 -140.761 -32.9956 -1.30827 -86.7535 -3.54966 21.6189 -32.0477 6.36111e-015 3.18055e-015 -6.36111e-015 3.97569e-015 -1.59028e-015 -3.18055e-015 -7.95139e-016 3.18055e-015 -3.18055e-015 6.36111e-015 3.18055e-015 -6.36111e-015 -0.0146431 -8.9165e-005 -4.987e-006 -1.59028e-015 -1.59028e-015 -6.36111e-015 6.36111e-015 3.18055e-015 -6.36111e-015 -0.0187671 -0.00117371 5.92744e-005 2.38542e-015 0 -0 6.36111e-015 3.18055e-015 -6.36111e-015 -0.0122563 -0.00324419 0.000673266 9.54166e-015 -6.36111e-015 6.36111e-015 6.36111e-015 3.18055e-015 -6.36111e-015 3.97569e-015 -1.59028e-015 -3.18055e-015 -7.95139e-016 3.18055e-015 -3.18055e-015 -28.618 29.2764 29.7231 125.209 -67.4969 140.802 32.9906 -1.36266 86.7262 3.41718 21.6335 31.9904 3.14685e-006 1.49692e-006 1.56436e-006 3.3483e-006 -2.02207e-006 -3.2917e-006 3.14685e-006 1.49692e-006 1.56436e-006 3.14685e-006 1.49692e-006 1.56436e-006 0.014997 -9.25301e-005 -4.95582e-006 4.63234e-006 2.29648e-006 2.06771e-006 3.14685e-006 1.49692e-006 1.56436e-006 0.0190029 -0.00118929 -6.09457e-005 3.14714e-006 1.49716e-006 1.56408e-006 3.14685e-006 1.49692e-006 1.56436e-006 0.0122697 -0.00325197 -0.000676788 3.14706e-006 1.49706e-006 1.5641e-006 3.14685e-006 1.49692e-006 1.56436e-006 3.3483e-006 -2.02207e-006 -3.2917e-006 3.14685e-006 1.49692e-006 1.56436e-006 -95.7375 -33.8636 -84.7161 176.749 45.1479 177.287 -7.15817 12.6867 -3.6434 -6.7161e-006 4.35918e-007 -6.29175e-007 95.7399 -33.872 84.6992 -176.707 45.1493 -177.335 7.13709 12.6925 3.65898 3.953e-006 5.57189e-007 -4.44895e-006 
-0.000384425 10.1372 66.6724 -0.00886773 -71.0095 179.991 0.0297214 -2.46181 0.046475 0.061529 -4.92363 0.0943604 0.061529 -4.92361 0.0943604 3.32208e-006 -2.72456 5.44369e-007 -0.0514036 1.25697 -0.00908052 29.1103 28.6699 -29.5694 -125.682 -67.6085 -141.136 -32.9792 -1.59415 -86.5148 -3.68035 21.1911 -31.8989 -0 -3.18055e-015 -0 -4.77083e-015 -1.59028e-015 -3.18055e-015 6.36111e-015 -6.36111e-015 6.36111e-015 -0 -3.18055e-015 -0 -0.0146255 -8.96977e-005 -3.04128e-006 -3.18055e-015 3.18055e-015 -6.36111e-015 -0 -3.18055e-015 -0 -0.0187674 -0.00117499 5.91193e-005 -1.4738e-006 1.27388e-006 4.68283e-007 -0 -3.18055e-015 -0 -0.0122671 -0.00324943 0.000670442 1.59028e-015 3.18055e-015 3.18055e-015 -0 -3.18055e-015 -0 -4.77083e-015 -1.59028e-015 -3.18055e-015 6.36111e-015 -6.36111e-015 6.36111e-015 -28.9161 28.7206 29.4646 125.706 -67.6181 141.169 32.9739 -1.64729 86.488 3.43448 21.2213 31.8082 -2.38542e-015 1.59028e-015 -0 -1.11319e-014 0 3.18055e-015 7.95139e-016 1.11319e-014 -0 -2.38542e-015 1.59028e-015 -0 0.0149928 -8.91929e-005 2.8702e-006 1.03368e-014 -1.59028e-015 -3.18055e-015 -2.38542e-015 1.59028e-015 -0 0.0190089 -0.00119271 -6.07894e-005 3.97569e-015 1.59028e-015 -0 -2.38542e-015 1.59028e-015 -0 0.0122918 -0.00325704 -0.00067723 9.54166e-015 0 -3.18055e-015 -2.38542e-015 1.59028e-015 -0 -1.11319e-014 0 3.18055e-015 7.95139e-016 1.11319e-014 -0 -95.9569 -33.8422 -84.8403 176.749 45.1491 177.286 -7.15867 12.6854 -3.64424 4.43086e-006 3.11127e-006 2.89321e-006 95.959 -33.8514 84.8236 -176.707 45.1505 -177.334 7.13756 12.6911 3.65981 -5.33343e-006 -3.07522e-006 -4.70572e-006 
-0.000389086 10.1006 66.7777 -0.00886773 -71.0095 179.991 0.0301819 -2.44432 0.0465735 0.06244 -4.88862 0.0945664 0.06244 -4.88861 0.0945664 4.12313e-006 -3.21542 7.85603e-007 -0.0514676 0.857052 -0.00904043 29.401 28.1163 -29.3063 -126.19 -67.731 -141.515 -32.9618 -1.87913 -86.2752 -3.80949 20.7629 -31.7514 -1.40168e-006 7.84804e-007 -4.5752e-007 7.95139e-016 -1.59028e-015 -0 1.40168e-006 -7.84804e-007 4.5752e-007 -1.40168e-006 7.84804e-007 -4.5752e-007 -0.0146607 -8.75554e-005 -2.25484e-006 8.74653e-015 -3.18055e-015 -3.18055e-015 -1.40168e-006 7.84804e-007 -4.5752e-007 -0.0187107 -0.00117386 5.72596e-005 1.51076e-014 6.36111e-015 3.18055e-015 -1.40168e-006 7.84804e-007 -4.5752e-007 -0.0122918 -0.00325303 0.000680074 7.15625e-015 -1.59028e-015 -6.36111e-015 -1.40168e-006 7.84804e-007 -4.5752e-007 7.95139e-016 -1.59028e-015 -0 1.40168e-006 -7.84804e-007 4.5752e-007 -29.2156 28.1657 29.2041 126.208 -67.738 141.541 32.956 -1.93103 86.2491 3.45037 20.8089 31.6266 -2.60481e-007 1.55909e-006 5.80624e-007 4.62266e-006 1.28409e-006 -5.58637e-008 2.23376e-008 9.78464e-007 2.13971e-006 -2.60481e-007 1.55909e-006 5.80624e-007 0.0149808 -8.8956e-005 7.6137e-007 2.24104e-008 9.78744e-007 2.13958e-006 -2.60481e-007 1.55909e-006 5.80624e-007 0.0189305 -0.00118504 -5.98477e-005 2.2449e-008 9.78812e-007 2.13955e-006 -2.60481e-007 1.55909e-006 5.80624e-007 0.0122923 -0.00325329 -0.00067869 2.24509e-008 9.78678e-007 2.1396e-006 -2.60481e-007 1.55909e-006 5.80624e-007 4.62266e-006 1.28409e-006 -5.58637e-008 2.23376e-008 9.78464e-007 2.13971e-006 -96.1762 -33.8205 -84.9642 176.749 45.1504 177.285 -7.15915 12.6841 -3.64505 4.40037e-007 8.76877e-006 -3.43462e-006 96.1782 -33.8304 84.948 -176.707 45.1517 -177.333 7.13804 12.6898 3.66064 -5.96354e-015 0 -5.96354e-016 
